G75*
%MOIN*%
%OFA0B0*%
%FSLAX25Y25*%
%IPPOS*%
%LPD*%
%AMOC8*
5,1,8,0,0,1.08239X$1,22.5*
%
%ADD10C,0.05150*%
%ADD11C,0.05150*%
%ADD12C,0.06693*%
D10*
X0036000Y0073425D02*
X0036000Y0078575D01*
X0046000Y0078575D02*
X0046000Y0073425D01*
X0056000Y0073425D02*
X0056000Y0078575D01*
X0066000Y0078575D02*
X0066000Y0073425D01*
X0076000Y0073425D02*
X0076000Y0078575D01*
X0086000Y0078575D02*
X0086000Y0073425D01*
X0096000Y0073425D02*
X0096000Y0078575D01*
X0106000Y0078575D02*
X0106000Y0073425D01*
X0116000Y0073425D02*
X0116000Y0078575D01*
X0126000Y0078575D02*
X0126000Y0073425D01*
X0136000Y0073425D02*
X0136000Y0078575D01*
X0146000Y0078575D02*
X0146000Y0073425D01*
X0156000Y0073425D02*
X0156000Y0078575D01*
X0166000Y0078575D02*
X0166000Y0073425D01*
X0176000Y0073425D02*
X0176000Y0078575D01*
X0176000Y0133425D02*
X0176000Y0138575D01*
X0166000Y0138575D02*
X0166000Y0133425D01*
X0156000Y0133425D02*
X0156000Y0138575D01*
X0146000Y0138575D02*
X0146000Y0133425D01*
X0136000Y0133425D02*
X0136000Y0138575D01*
X0126000Y0138575D02*
X0126000Y0133425D01*
X0116000Y0133425D02*
X0116000Y0138575D01*
X0106000Y0138575D02*
X0106000Y0133425D01*
X0096000Y0133425D02*
X0096000Y0138575D01*
X0086000Y0138575D02*
X0086000Y0133425D01*
X0076000Y0133425D02*
X0076000Y0138575D01*
X0066000Y0138575D02*
X0066000Y0133425D01*
X0056000Y0133425D02*
X0056000Y0138575D01*
X0046000Y0138575D02*
X0046000Y0133425D01*
X0036000Y0133425D02*
X0036000Y0138575D01*
D11*
X0171000Y0116000D03*
X0181000Y0116000D03*
X0181000Y0106000D03*
X0171000Y0106000D03*
X0171000Y0096000D03*
X0181000Y0096000D03*
D12*
X0157890Y0166394D03*
X0144110Y0166394D03*
X0112890Y0165606D03*
X0099110Y0165606D03*
X0061394Y0159772D03*
X0061394Y0173551D03*
X0061394Y0187331D03*
X0061394Y0201110D03*
X0061394Y0214890D03*
X0061394Y0228669D03*
X0061394Y0242449D03*
X0061394Y0256228D03*
X0067220Y0290606D03*
X0053441Y0290606D03*
X0081000Y0290606D03*
X0094780Y0290606D03*
X0108559Y0290606D03*
X0144110Y0291394D03*
X0157890Y0291394D03*
X0157890Y0248394D03*
X0144110Y0248394D03*
X0144110Y0206394D03*
X0157890Y0206394D03*
M02*
