%
M48
M72
T01C0.03150
T02C0.04331
%
T01
X36000Y76000
X46000Y76000
X56000Y76000
X66000Y76000
X76000Y76000
X86000Y76000
X96000Y76000
X106000Y76000
X116000Y76000
X126000Y76000
X136000Y76000
X146000Y76000
X156000Y76000
X166000Y76000
X176000Y76000
X171000Y96000
X181000Y96000
X181000Y106000
X171000Y106000
X171000Y116000
X181000Y116000
X176000Y136000
X166000Y136000
X156000Y136000
X146000Y136000
X136000Y136000
X126000Y136000
X116000Y136000
X106000Y136000
X96000Y136000
X86000Y136000
X76000Y136000
X66000Y136000
X56000Y136000
X46000Y136000
X36000Y136000
T02
X61394Y159772
X61394Y173551
X61394Y187331
X61394Y201110
X61394Y214890
X61394Y228669
X61394Y242449
X61394Y256228
X67220Y290606
X53441Y290606
X81000Y290606
X94780Y290606
X108559Y290606
X144110Y291394
X157890Y291394
X157890Y248394
X144110Y248394
X144110Y206394
X157890Y206394
X157890Y166394
X144110Y166394
X112890Y165606
X99110Y165606
M30
