G75*
%MOIN*%
%OFA0B0*%
%FSLAX25Y25*%
%IPPOS*%
%LPD*%
%AMOC8*
5,1,8,0,0,1.08239X$1,22.5*
%
%ADD10R,0.07087X0.09449*%
%ADD11R,0.03937X0.05512*%
%ADD12R,0.04331X0.03937*%
%ADD13C,0.05150*%
%ADD14C,0.05150*%
%ADD15C,0.06693*%
%ADD16C,0.01000*%
%ADD17C,0.00600*%
D10*
X0113028Y0191000D03*
X0128972Y0191000D03*
X0128972Y0216000D03*
X0113028Y0216000D03*
X0113028Y0241000D03*
X0128972Y0241000D03*
X0128972Y0266000D03*
X0113028Y0266000D03*
D11*
X0104740Y0261669D03*
X0097260Y0261669D03*
X0101000Y0270331D03*
X0101000Y0245331D03*
X0097260Y0236669D03*
X0104740Y0236669D03*
X0101000Y0220331D03*
X0097260Y0211669D03*
X0104740Y0211669D03*
X0101000Y0195331D03*
X0097260Y0186669D03*
X0104740Y0186669D03*
D12*
X0089346Y0191000D03*
X0082654Y0191000D03*
X0082654Y0216000D03*
X0089346Y0216000D03*
X0089346Y0241000D03*
X0082654Y0241000D03*
X0082654Y0266000D03*
X0089346Y0266000D03*
D13*
X0036000Y0078575D02*
X0036000Y0073425D01*
X0046000Y0073425D02*
X0046000Y0078575D01*
X0056000Y0078575D02*
X0056000Y0073425D01*
X0066000Y0073425D02*
X0066000Y0078575D01*
X0076000Y0078575D02*
X0076000Y0073425D01*
X0086000Y0073425D02*
X0086000Y0078575D01*
X0096000Y0078575D02*
X0096000Y0073425D01*
X0106000Y0073425D02*
X0106000Y0078575D01*
X0116000Y0078575D02*
X0116000Y0073425D01*
X0126000Y0073425D02*
X0126000Y0078575D01*
X0136000Y0078575D02*
X0136000Y0073425D01*
X0146000Y0073425D02*
X0146000Y0078575D01*
X0156000Y0078575D02*
X0156000Y0073425D01*
X0166000Y0073425D02*
X0166000Y0078575D01*
X0176000Y0078575D02*
X0176000Y0073425D01*
X0176000Y0133425D02*
X0176000Y0138575D01*
X0166000Y0138575D02*
X0166000Y0133425D01*
X0156000Y0133425D02*
X0156000Y0138575D01*
X0146000Y0138575D02*
X0146000Y0133425D01*
X0136000Y0133425D02*
X0136000Y0138575D01*
X0126000Y0138575D02*
X0126000Y0133425D01*
X0116000Y0133425D02*
X0116000Y0138575D01*
X0106000Y0138575D02*
X0106000Y0133425D01*
X0096000Y0133425D02*
X0096000Y0138575D01*
X0086000Y0138575D02*
X0086000Y0133425D01*
X0076000Y0133425D02*
X0076000Y0138575D01*
X0066000Y0138575D02*
X0066000Y0133425D01*
X0056000Y0133425D02*
X0056000Y0138575D01*
X0046000Y0138575D02*
X0046000Y0133425D01*
X0036000Y0133425D02*
X0036000Y0138575D01*
D14*
X0171000Y0116000D03*
X0181000Y0116000D03*
X0181000Y0106000D03*
X0171000Y0106000D03*
X0171000Y0096000D03*
X0181000Y0096000D03*
D15*
X0157890Y0166394D03*
X0144110Y0166394D03*
X0112890Y0165606D03*
X0099110Y0165606D03*
X0061394Y0159772D03*
X0061394Y0173551D03*
X0061394Y0187331D03*
X0061394Y0201110D03*
X0061394Y0214890D03*
X0061394Y0228669D03*
X0061394Y0242449D03*
X0061394Y0256228D03*
X0067220Y0290606D03*
X0053441Y0290606D03*
X0081000Y0290606D03*
X0094780Y0290606D03*
X0108559Y0290606D03*
X0144110Y0291394D03*
X0157890Y0291394D03*
X0157890Y0248394D03*
X0144110Y0248394D03*
X0144110Y0206394D03*
X0157890Y0206394D03*
D16*
X0157600Y0206200D02*
X0153400Y0202000D01*
X0157600Y0197800D01*
X0157600Y0166600D01*
X0157600Y0166000D02*
X0153400Y0161800D01*
X0142000Y0161800D01*
X0130000Y0149800D01*
X0130000Y0132400D01*
X0127000Y0129400D01*
X0124600Y0129400D01*
X0122200Y0131800D01*
X0122200Y0137800D01*
X0099400Y0160600D01*
X0099400Y0165400D01*
X0099110Y0165606D01*
X0112600Y0166000D02*
X0112600Y0178600D01*
X0104800Y0186400D01*
X0103000Y0187000D02*
X0095800Y0194200D01*
X0095800Y0196600D01*
X0104200Y0205000D01*
X0104200Y0211600D01*
X0103000Y0212200D02*
X0095800Y0219400D01*
X0095800Y0227800D01*
X0104200Y0236200D01*
X0104200Y0236800D02*
X0100600Y0240400D01*
X0099400Y0240400D01*
X0095800Y0244000D01*
X0095800Y0253000D01*
X0104200Y0261400D01*
X0103000Y0262000D02*
X0095800Y0269200D01*
X0086200Y0269200D01*
X0083200Y0266200D01*
X0089800Y0265600D02*
X0093400Y0265600D01*
X0097000Y0262000D01*
X0101200Y0270400D02*
X0107800Y0270400D01*
X0109600Y0272200D01*
X0122800Y0272200D01*
X0124000Y0271000D01*
X0143800Y0290800D01*
X0144110Y0291394D01*
X0157890Y0291394D02*
X0158200Y0290800D01*
X0158200Y0248800D01*
X0157600Y0248200D02*
X0154000Y0244600D01*
X0145600Y0253000D01*
X0132400Y0253000D01*
X0119800Y0265600D01*
X0113200Y0265600D01*
X0124000Y0271000D02*
X0128800Y0266200D01*
X0136600Y0248200D02*
X0129400Y0241000D01*
X0128800Y0241000D02*
X0122800Y0247000D01*
X0109000Y0247000D01*
X0107800Y0245800D01*
X0101200Y0245800D01*
X0095800Y0244000D02*
X0086200Y0244000D01*
X0083200Y0241000D01*
X0089346Y0241000D02*
X0092800Y0241000D01*
X0097000Y0236800D01*
X0113028Y0241000D02*
X0119200Y0241000D01*
X0125200Y0235000D01*
X0144400Y0235000D01*
X0157600Y0221800D01*
X0157600Y0206800D01*
X0153400Y0202000D02*
X0133000Y0202000D01*
X0119200Y0215800D01*
X0113200Y0215800D01*
X0107800Y0220600D02*
X0109000Y0221800D01*
X0123400Y0221800D01*
X0128800Y0216400D01*
X0129400Y0215800D02*
X0138400Y0206800D01*
X0143800Y0206800D01*
X0144110Y0206394D01*
X0128800Y0191200D02*
X0122800Y0197200D01*
X0109600Y0197200D01*
X0107800Y0195400D01*
X0101200Y0195400D01*
X0095800Y0194200D02*
X0086200Y0194200D01*
X0083200Y0191200D01*
X0089800Y0190600D02*
X0093400Y0190600D01*
X0097000Y0187000D01*
X0113200Y0190600D02*
X0142000Y0161800D01*
X0143800Y0166600D02*
X0143800Y0176200D01*
X0129400Y0190600D01*
X0097000Y0212200D02*
X0093400Y0215800D01*
X0089800Y0215800D01*
X0086200Y0219400D02*
X0095800Y0219400D01*
X0101200Y0220600D02*
X0107800Y0220600D01*
X0086200Y0219400D02*
X0083200Y0216400D01*
X0136600Y0248200D02*
X0143800Y0248200D01*
X0154000Y0244600D02*
X0144400Y0235000D01*
X0109600Y0140200D02*
X0109600Y0131800D01*
X0107200Y0129400D01*
X0104800Y0129400D01*
X0100000Y0134200D01*
X0100000Y0139600D01*
X0097000Y0142600D01*
X0073000Y0142600D01*
X0066400Y0136000D01*
D17*
X0066000Y0136000D01*
X0062200Y0131800D02*
X0064600Y0129400D01*
X0089200Y0129400D01*
X0095800Y0136000D01*
X0096000Y0136000D01*
X0106000Y0136000D02*
X0077800Y0164200D01*
X0077800Y0217000D01*
X0097000Y0236200D01*
X0097260Y0236669D01*
X0097000Y0236800D01*
X0104200Y0236800D02*
X0104740Y0236669D01*
X0104200Y0236200D01*
X0101000Y0245331D02*
X0101200Y0245800D01*
X0083200Y0241000D02*
X0082654Y0241000D01*
X0075400Y0239800D02*
X0075400Y0153400D01*
X0062200Y0140200D01*
X0062200Y0131800D01*
X0061000Y0130600D02*
X0061000Y0154000D01*
X0056800Y0158200D01*
X0056800Y0182800D01*
X0061000Y0187000D01*
X0061394Y0187331D01*
X0067000Y0186400D02*
X0067000Y0217600D01*
X0060400Y0224200D01*
X0059800Y0224200D01*
X0056800Y0227200D01*
X0056800Y0245200D01*
X0076600Y0265000D01*
X0076600Y0292600D01*
X0079000Y0295000D01*
X0090400Y0295000D01*
X0094600Y0290800D01*
X0094780Y0290606D01*
X0095200Y0290800D01*
X0101800Y0297400D01*
X0160000Y0297400D01*
X0163600Y0293800D01*
X0163600Y0164200D01*
X0162400Y0163000D01*
X0162400Y0131800D01*
X0166000Y0128200D01*
X0166000Y0076000D01*
X0146200Y0076000D02*
X0146000Y0076000D01*
X0146200Y0076000D02*
X0146200Y0118600D01*
X0161200Y0133600D01*
X0161200Y0163600D01*
X0162400Y0164800D01*
X0162400Y0293200D01*
X0159400Y0296200D01*
X0114400Y0296200D01*
X0109000Y0290800D01*
X0108559Y0290606D01*
X0108400Y0290200D01*
X0101200Y0290200D01*
X0079000Y0268000D01*
X0079000Y0251800D01*
X0074200Y0247000D01*
X0074200Y0179800D01*
X0061600Y0167200D01*
X0061600Y0160000D01*
X0061394Y0159772D01*
X0055600Y0157600D02*
X0055600Y0188800D01*
X0065800Y0199000D01*
X0065800Y0217000D01*
X0059800Y0223000D01*
X0059200Y0223000D01*
X0055600Y0226600D01*
X0055600Y0250600D01*
X0061000Y0256000D01*
X0061394Y0256228D01*
X0077800Y0252400D02*
X0077800Y0287200D01*
X0080800Y0290200D01*
X0081000Y0290606D01*
X0067220Y0290606D02*
X0067000Y0290200D01*
X0054400Y0277600D01*
X0054400Y0226000D01*
X0061000Y0219400D01*
X0061000Y0215200D01*
X0061394Y0214890D01*
X0061394Y0201110D02*
X0061000Y0200800D01*
X0052000Y0191800D01*
X0052000Y0132400D01*
X0106000Y0078400D01*
X0106000Y0076000D01*
X0109600Y0074800D02*
X0109600Y0080200D01*
X0059800Y0130000D01*
X0059800Y0153400D01*
X0055600Y0157600D01*
X0061394Y0173551D02*
X0061600Y0173800D01*
X0061600Y0181000D01*
X0067000Y0186400D01*
X0079000Y0193600D02*
X0079000Y0170800D01*
X0109600Y0140200D01*
X0110800Y0133600D02*
X0110800Y0147400D01*
X0083200Y0175000D01*
X0083200Y0190600D01*
X0082654Y0191000D01*
X0083200Y0191200D01*
X0089346Y0191000D02*
X0089800Y0190600D01*
X0097000Y0187000D02*
X0097260Y0186669D01*
X0097600Y0186400D01*
X0097600Y0173200D01*
X0125800Y0145000D01*
X0125800Y0136000D01*
X0126000Y0136000D01*
X0131200Y0139000D02*
X0131200Y0131800D01*
X0127600Y0128200D01*
X0116200Y0128200D01*
X0110800Y0133600D01*
X0131200Y0139000D02*
X0134800Y0142600D01*
X0137200Y0142600D01*
X0143800Y0136000D01*
X0146000Y0136000D01*
X0136000Y0136000D02*
X0136000Y0094000D01*
X0119800Y0077800D01*
X0119800Y0071800D01*
X0117400Y0069400D01*
X0115000Y0069400D01*
X0109600Y0074800D01*
X0115600Y0076000D02*
X0116000Y0076000D01*
X0115600Y0076000D02*
X0061000Y0130600D01*
X0112600Y0166000D02*
X0112890Y0165606D01*
X0104800Y0186400D02*
X0104740Y0186669D01*
X0104200Y0187000D01*
X0103000Y0187000D01*
X0113028Y0191000D02*
X0113200Y0190600D01*
X0101200Y0195400D02*
X0101000Y0195331D01*
X0104200Y0211600D02*
X0104740Y0211669D01*
X0104200Y0212200D01*
X0103000Y0212200D01*
X0097260Y0211669D02*
X0097000Y0211600D01*
X0079000Y0193600D01*
X0097260Y0211669D02*
X0097000Y0212200D01*
X0089800Y0215800D02*
X0089346Y0216000D01*
X0083200Y0216400D02*
X0082654Y0216000D01*
X0101000Y0220331D02*
X0101200Y0220600D01*
X0113028Y0216000D02*
X0113200Y0215800D01*
X0128800Y0216400D02*
X0128972Y0216000D01*
X0129400Y0215800D01*
X0157600Y0206800D02*
X0157890Y0206394D01*
X0157600Y0206200D01*
X0129400Y0190600D02*
X0128972Y0191000D01*
X0128800Y0191200D01*
X0143800Y0166600D02*
X0144110Y0166394D01*
X0157600Y0166600D02*
X0157890Y0166394D01*
X0157600Y0166000D01*
X0075400Y0239800D02*
X0097000Y0261400D01*
X0097260Y0261669D01*
X0097000Y0262000D01*
X0103000Y0262000D02*
X0104200Y0262000D01*
X0104740Y0261669D01*
X0104200Y0261400D01*
X0113200Y0265600D02*
X0113028Y0266000D01*
X0101200Y0270400D02*
X0101000Y0270331D01*
X0089800Y0265600D02*
X0089346Y0266000D01*
X0083200Y0266200D02*
X0082654Y0266000D01*
X0077800Y0252400D02*
X0061600Y0236200D01*
X0061600Y0229000D01*
X0061394Y0228669D01*
X0128800Y0241000D02*
X0128972Y0241000D01*
X0129400Y0241000D01*
X0143800Y0248200D02*
X0144110Y0248394D01*
X0157600Y0248200D02*
X0157890Y0248394D01*
X0158200Y0248800D01*
X0128972Y0266000D02*
X0128800Y0266200D01*
M02*
