G04 EasyPC Gerber Version 20.0.2 Build 4112 *
G04 #@! TF.Part,Single*
G04 #@! TF.FileFunction,Copper,L4,Bot *
%FSLAX35Y35*%
%MOIN*%
G04 #@! TA.AperFunction,SMDPad*
%ADD75R,0.03300X0.06300*%
%ADD17R,0.05100X0.06000*%
G04 #@! TA.AperFunction,ComponentPad*
%ADD12R,0.06000X0.06000*%
%ADD14R,0.06400X0.06400*%
%ADD19R,0.07087X0.07087*%
%ADD70R,0.19685X0.19685*%
G04 #@! TD.AperFunction*
%ADD10C,0.01575*%
%ADD21C,0.02362*%
%ADD20C,0.03937*%
G04 #@! TA.AperFunction,ComponentPad*
%ADD15C,0.06400*%
%ADD13C,0.07087*%
G04 #@! TA.AperFunction,SMDPad*
%ADD16R,0.06000X0.05100*%
G04 #@! TA.AperFunction,ComponentPad*
%ADD18C,0.07874*%
G04 #@! TA.AperFunction,ViaPad*
%ADD71C,0.15748*%
G04 #@! TA.AperFunction,SMDPad*
%ADD76R,0.12200X0.06300*%
X0Y0D02*
D02*
D10*
X471270Y289756D02*
X418250Y289480D01*
D02*
D12*
X243250Y78230D03*
Y178230D03*
Y273230D03*
D02*
D13*
Y48230D03*
Y58230D03*
Y68230D03*
Y148230D03*
Y158230D03*
Y168230D03*
Y243230D03*
Y253230D03*
Y263230D03*
X273250Y48230D03*
Y58230D03*
Y68230D03*
Y78230D03*
Y148230D03*
Y158230D03*
Y168230D03*
Y178230D03*
Y243230D03*
Y253230D03*
Y263230D03*
Y273230D03*
D02*
D14*
X206181Y288904D03*
X225650Y98230D03*
Y198230D03*
D02*
D15*
X253781Y288904D03*
X273250Y98230D03*
Y198230D03*
D02*
D16*
X203250Y59480D03*
Y66980D03*
Y159480D03*
Y166980D03*
Y254480D03*
Y261980D03*
X218250Y59480D03*
Y66980D03*
Y159480D03*
Y166980D03*
Y254480D03*
Y261980D03*
X298250Y254480D03*
Y261980D03*
X418250Y289480D03*
Y296980D03*
D02*
D17*
X79500Y308230D03*
X87000D03*
X284500Y18230D03*
Y129687D03*
X289500Y200498D03*
X292000Y18230D03*
Y129687D03*
X297000Y200498D03*
D02*
D18*
X43250Y268230D03*
X53250D03*
X93250Y241156D03*
X103474Y263789D03*
X104541Y231490D03*
X114447Y150919D03*
X133474Y263789D03*
X154679Y168230D03*
X156632Y148230D03*
X158451Y227305D03*
X337289Y199986D03*
X338250Y129026D03*
Y143230D03*
X343250Y223230D03*
X373250Y83230D03*
Y178230D03*
Y273230D03*
X377207Y33230D03*
Y128230D03*
Y223230D03*
X387207Y47187D03*
Y73230D03*
Y93230D03*
Y142187D03*
Y168230D03*
Y188230D03*
Y237187D03*
Y263230D03*
Y283230D03*
X397207Y33230D03*
Y128230D03*
Y223230D03*
X418250Y313230D03*
D02*
D19*
X47026Y145766D03*
Y155766D03*
X53250Y195061D03*
Y205061D03*
Y308230D03*
X68250Y28230D03*
Y38230D03*
Y48230D03*
Y58230D03*
Y68230D03*
Y78230D03*
Y88230D03*
Y98230D03*
Y108230D03*
Y118230D03*
Y128230D03*
Y138230D03*
Y148230D03*
Y158230D03*
Y168230D03*
X113250Y308230D03*
X128250Y28230D03*
Y38230D03*
Y48230D03*
Y58230D03*
Y68230D03*
Y78230D03*
Y88230D03*
Y98230D03*
Y108230D03*
Y118230D03*
Y128230D03*
Y138230D03*
Y148230D03*
Y158230D03*
Y168230D03*
X152813Y37360D03*
Y59368D03*
X162844Y48364D03*
D02*
D70*
X447207Y63230D03*
Y158230D03*
Y253230D03*
D02*
D71*
X53250Y308230D02*
X63250Y298230D01*
X133474Y267152D02*
X134136D01*
Y283455*
X138250Y288230D02*
X158250Y308230D01*
X292207*
X377207Y223230*
X138250Y288230D02*
X73250D01*
X63250Y298230*
X338250Y308230D02*
X373250Y273230D01*
X338250Y308230D03*
X377207Y128230D02*
X367207D01*
X352207Y113230*
Y48230*
X367207Y33230*
X377207*
Y223230D02*
X373250D01*
X358250Y208230*
Y143230*
X373250Y128230*
X377207*
X439037Y52459D02*
X390089D01*
X445644Y244675D02*
X390749D01*
X447087Y162423D02*
X387207D01*
X447207Y63230D02*
Y67108D01*
X387207*
X447207Y158230D02*
Y149699D01*
X395628*
X395518Y149809*
X387207*
X447207Y253230D02*
X449789D01*
Y259447*
X389789*
D02*
D20*
X43250Y268230D02*
Y278230D01*
X63250Y298230*
X53250Y195061D02*
X66419D01*
X83250Y178230*
Y38230*
X53250Y205061D02*
X60081D01*
X63250Y208230*
Y220630*
X68250Y225630*
X59195Y250830D02*
X45650D01*
X43250Y253230*
Y268230*
X68250Y38230D02*
X83250D01*
X68250Y250830D02*
Y225630D01*
Y250830D02*
Y263230D01*
X63250Y268230*
X53250*
X77305Y250830D02*
Y258530D01*
X83179Y264404*
X100006*
X100620Y263789*
X103474*
X79500Y308230D02*
X53250D01*
X83250Y38230D02*
X88250D01*
X108250Y18230*
X167289*
X189333Y40274*
Y59480*
X87000Y308230D02*
X113250D01*
X133474Y263789D02*
Y267152D01*
X134136Y283455D02*
X138250Y287569D01*
Y288230*
X189305Y254480D02*
Y213616D01*
X189366*
Y159480*
X189305Y254480D02*
X172000D01*
X138250Y288230*
X189366Y159480D02*
Y59262D01*
X189043Y59480*
X189333*
X203250D02*
X189333D01*
X203250D02*
X218250D01*
X203250Y159480D02*
X189366D01*
X203250Y254480D02*
X189305D01*
X218250Y59480D02*
X222000D01*
X233250Y48230*
X243250*
X218250Y66980D02*
X203250D01*
X218250D02*
Y73230D01*
X223250Y78230*
X243250*
X218250Y159480D02*
Y158230D01*
X228250Y148230*
X243250*
X218250Y159480D02*
X203250D01*
X218250Y166980D02*
X203250D01*
X218250D02*
Y168230D01*
X228250Y178230*
X243250*
X218250Y254480D02*
Y253230D01*
X228250Y243230*
X243250*
X218250Y254480D02*
X203250D01*
X218250Y261980D02*
X203250D01*
X218250D02*
Y263230D01*
X228250Y273230*
X243250*
Y178230D02*
X248880D01*
X258880Y168230*
Y131460*
X225650Y98230*
X243250Y273230D02*
X248250D01*
X258250Y263230*
Y230830*
X225650Y198230*
X253781Y288904D02*
Y287333D01*
X267581Y273533*
X272947*
X273250Y273230*
X298250Y254480D02*
Y253230D01*
X273250*
X298250Y261980D02*
Y263230D01*
X288250Y273230*
X273250*
X338250Y143230D02*
X297171D01*
X282171Y158230*
X273250*
X343250Y223230D02*
X329500D01*
X298250Y254480*
X387207Y67108D02*
Y59785D01*
X390089*
Y52459*
X387207Y73230D02*
Y67108D01*
Y149809D02*
Y142187D01*
Y162423D02*
Y149809D01*
Y168230D02*
Y162423D01*
Y263230D02*
Y260396D01*
X389789*
Y259447*
Y252750*
X390749*
Y244675*
X390089Y52459D02*
Y49825D01*
X387207*
Y47187*
X390749Y244675D02*
Y239982D01*
X387207*
Y237187*
X447207Y63230D02*
Y60628D01*
X439037Y52459*
X447207Y158230D02*
X447087Y162423D01*
X447207Y253230D02*
X445644Y244675D01*
D02*
D21*
X47026Y155766D02*
Y177372D01*
X35841Y188557*
Y199219*
X41309Y204687*
X53624*
X53250Y205061*
X68250Y58230D02*
X52502D01*
X44309Y66423*
Y128659*
X47435Y131785*
Y145356*
X47026Y145766*
X93250Y241156D02*
Y83230D01*
X98250Y78230*
X128250*
X104541Y231490D02*
Y101939D01*
X108250Y98230*
X128250*
X152813Y37360D02*
X170061D01*
X177888Y45187*
Y207868*
X158451Y227305*
X154679Y168230D02*
X155695D01*
Y165183*
X148742Y158230*
X128250*
X156632Y148230D02*
X128250D01*
X162844Y48364D02*
Y133955D01*
X169238Y140348*
Y175191*
X161789Y182640*
X122136*
X114447Y174951*
Y150919*
X273250Y148230D02*
Y139679D01*
X284500Y128429*
Y129687*
X273250Y168230D02*
X283250D01*
X288250Y173230*
Y199248*
X289500Y200498*
X284500Y18230D02*
X273250D01*
X254738Y36742*
Y53711*
X269738Y68711*
X273250*
Y68230*
X292000Y18230D02*
X455124D01*
X470124Y33230*
Y78230*
X455124Y93230*
X387207*
X292000Y129687D02*
X338250D01*
Y129026*
X297000Y200498D02*
X337289D01*
Y199986*
X397207Y223230D02*
X449744D01*
X471270Y244756*
Y289756*
X418250Y313230D02*
Y296980D01*
D02*
D75*
X59195Y250830D03*
X68250D03*
X77305D03*
D02*
D76*
X68250Y225630D03*
X0Y0D02*
M02*
