G04 EasyPC Gerber Version 20.0.2 Build 4112 *
G04 #@! TF.Part,Single*
%FSLAX35Y35*%
%MOIN*%
%ADD82C,0.00500*%
G04 #@! TA.AperFunction,ComponentPad*
%ADD85C,0.10000*%
X0Y0D02*
D02*
D82*
X53250Y274168D02*
X54813Y277918D01*
X56375Y274168*
X53875Y275730D02*
X55750D01*
X59213Y153578D02*
X59838Y153266D01*
X60151Y152641*
X59838Y152016*
X59213Y151703*
X57026*
Y155453*
X59213*
X59838Y155141*
X60151Y154516*
X59838Y153891*
X59213Y153578*
X57026*
X59213Y163578D02*
X59838Y163266D01*
X60151Y162641*
X59838Y162016*
X59213Y161703*
X57026*
Y165453*
X59213*
X59838Y165141*
X60151Y164516*
X59838Y163891*
X59213Y163578*
X57026*
X65437Y202874D02*
X66063Y202561D01*
X66375Y201936*
X66063Y201311*
X65437Y200998*
X63250*
Y204748*
X65437*
X66063Y204436*
X66375Y203811*
X66063Y203186*
X65437Y202874*
X63250*
X65437Y212874D02*
X66063Y212561D01*
X66375Y211936*
X66063Y211311*
X65437Y210998*
X63250*
Y214748*
X65437*
X66063Y214436*
X66375Y213811*
X66063Y213186*
X65437Y212874*
X63250*
Y274168D02*
X64813Y277918D01*
X66375Y274168*
X63875Y275730D02*
X65750D01*
X65437Y316043D02*
X66063Y315730D01*
X66375Y315106*
X66063Y314480*
X65437Y314168*
X63250*
Y317918*
X65437*
X66063Y317606*
X66375Y316980*
X66063Y316356*
X65437Y316043*
X63250*
X80437Y36043D02*
X81063Y35730D01*
X81375Y35106*
X81063Y34480*
X80437Y34168*
X78250*
Y37918*
X80437*
X81063Y37606*
X81375Y36980*
X81063Y36356*
X80437Y36043*
X78250*
X80437Y46043D02*
X81063Y45730D01*
X81375Y45106*
X81063Y44480*
X80437Y44168*
X78250*
Y47918*
X80437*
X81063Y47606*
X81375Y46980*
X81063Y46356*
X80437Y46043*
X78250*
X80437Y56043D02*
X81063Y55730D01*
X81375Y55106*
X81063Y54480*
X80437Y54168*
X78250*
Y57918*
X80437*
X81063Y57606*
X81375Y56980*
X81063Y56356*
X80437Y56043*
X78250*
X80437Y66043D02*
X81063Y65730D01*
X81375Y65106*
X81063Y64480*
X80437Y64168*
X78250*
Y67918*
X80437*
X81063Y67606*
X81375Y66980*
X81063Y66356*
X80437Y66043*
X78250*
X80437Y76043D02*
X81063Y75730D01*
X81375Y75106*
X81063Y74480*
X80437Y74168*
X78250*
Y77918*
X80437*
X81063Y77606*
X81375Y76980*
X81063Y76356*
X80437Y76043*
X78250*
X80437Y86043D02*
X81063Y85730D01*
X81375Y85106*
X81063Y84480*
X80437Y84168*
X78250*
Y87918*
X80437*
X81063Y87606*
X81375Y86980*
X81063Y86356*
X80437Y86043*
X78250*
X80437Y96043D02*
X81063Y95730D01*
X81375Y95106*
X81063Y94480*
X80437Y94168*
X78250*
Y97918*
X80437*
X81063Y97606*
X81375Y96980*
X81063Y96356*
X80437Y96043*
X78250*
X80437Y106043D02*
X81063Y105730D01*
X81375Y105106*
X81063Y104480*
X80437Y104168*
X78250*
Y107918*
X80437*
X81063Y107606*
X81375Y106980*
X81063Y106356*
X80437Y106043*
X78250*
X80437Y116043D02*
X81063Y115730D01*
X81375Y115106*
X81063Y114480*
X80437Y114168*
X78250*
Y117918*
X80437*
X81063Y117606*
X81375Y116980*
X81063Y116356*
X80437Y116043*
X78250*
X80437Y126043D02*
X81063Y125730D01*
X81375Y125106*
X81063Y124480*
X80437Y124168*
X78250*
Y127918*
X80437*
X81063Y127606*
X81375Y126980*
X81063Y126356*
X80437Y126043*
X78250*
X80437Y136043D02*
X81063Y135730D01*
X81375Y135106*
X81063Y134480*
X80437Y134168*
X78250*
Y137918*
X80437*
X81063Y137606*
X81375Y136980*
X81063Y136356*
X80437Y136043*
X78250*
X80437Y146043D02*
X81063Y145730D01*
X81375Y145106*
X81063Y144480*
X80437Y144168*
X78250*
Y147918*
X80437*
X81063Y147606*
X81375Y146980*
X81063Y146356*
X80437Y146043*
X78250*
X80437Y156043D02*
X81063Y155730D01*
X81375Y155106*
X81063Y154480*
X80437Y154168*
X78250*
Y157918*
X80437*
X81063Y157606*
X81375Y156980*
X81063Y156356*
X80437Y156043*
X78250*
X80437Y166043D02*
X81063Y165730D01*
X81375Y165106*
X81063Y164480*
X80437Y164168*
X78250*
Y167918*
X80437*
X81063Y167606*
X81375Y166980*
X81063Y166356*
X80437Y166043*
X78250*
X80437Y176043D02*
X81063Y175730D01*
X81375Y175106*
X81063Y174480*
X80437Y174168*
X78250*
Y177918*
X80437*
X81063Y177606*
X81375Y176980*
X81063Y176356*
X80437Y176043*
X78250*
X105437Y248968D02*
X106063Y248656D01*
X106375Y248031*
X106063Y247406*
X105437Y247093*
X103250*
Y250843*
X105437*
X106063Y250531*
X106375Y249906*
X106063Y249281*
X105437Y248968*
X103250*
X115662Y271602D02*
X116287Y271289D01*
X116600Y270665*
X116287Y270039*
X115662Y269727*
X113474*
Y273477*
X115662*
X116287Y273165*
X116600Y272539*
X116287Y271915*
X115662Y271602*
X113474*
X116729Y239303D02*
X117354Y238990D01*
X117667Y238365*
X117354Y237740*
X116729Y237428*
X114541*
Y241178*
X116729*
X117354Y240865*
X117667Y240240*
X117354Y239615*
X116729Y239303*
X114541*
X125437Y316043D02*
X126063Y315730D01*
X126375Y315106*
X126063Y314480*
X125437Y314168*
X123250*
Y317918*
X125437*
X126063Y317606*
X126375Y316980*
X126063Y316356*
X125437Y316043*
X123250*
X126634Y158732D02*
X127259Y158419D01*
X127572Y157794*
X127259Y157169*
X126634Y156857*
X124447*
Y160607*
X126634*
X127259Y160294*
X127572Y159669*
X127259Y159044*
X126634Y158732*
X124447*
X140437Y36043D02*
X141063Y35730D01*
X141375Y35106*
X141063Y34480*
X140437Y34168*
X138250*
Y37918*
X140437*
X141063Y37606*
X141375Y36980*
X141063Y36356*
X140437Y36043*
X138250*
X140437Y46043D02*
X141063Y45730D01*
X141375Y45106*
X141063Y44480*
X140437Y44168*
X138250*
Y47918*
X140437*
X141063Y47606*
X141375Y46980*
X141063Y46356*
X140437Y46043*
X138250*
X140437Y56043D02*
X141063Y55730D01*
X141375Y55106*
X141063Y54480*
X140437Y54168*
X138250*
Y57918*
X140437*
X141063Y57606*
X141375Y56980*
X141063Y56356*
X140437Y56043*
X138250*
X140437Y66043D02*
X141063Y65730D01*
X141375Y65106*
X141063Y64480*
X140437Y64168*
X138250*
Y67918*
X140437*
X141063Y67606*
X141375Y66980*
X141063Y66356*
X140437Y66043*
X138250*
X140437Y76043D02*
X141063Y75730D01*
X141375Y75106*
X141063Y74480*
X140437Y74168*
X138250*
Y77918*
X140437*
X141063Y77606*
X141375Y76980*
X141063Y76356*
X140437Y76043*
X138250*
X140437Y86043D02*
X141063Y85730D01*
X141375Y85106*
X141063Y84480*
X140437Y84168*
X138250*
Y87918*
X140437*
X141063Y87606*
X141375Y86980*
X141063Y86356*
X140437Y86043*
X138250*
X140437Y96043D02*
X141063Y95730D01*
X141375Y95106*
X141063Y94480*
X140437Y94168*
X138250*
Y97918*
X140437*
X141063Y97606*
X141375Y96980*
X141063Y96356*
X140437Y96043*
X138250*
X140437Y106043D02*
X141063Y105730D01*
X141375Y105106*
X141063Y104480*
X140437Y104168*
X138250*
Y107918*
X140437*
X141063Y107606*
X141375Y106980*
X141063Y106356*
X140437Y106043*
X138250*
X140437Y116043D02*
X141063Y115730D01*
X141375Y115106*
X141063Y114480*
X140437Y114168*
X138250*
Y117918*
X140437*
X141063Y117606*
X141375Y116980*
X141063Y116356*
X140437Y116043*
X138250*
X140437Y126043D02*
X141063Y125730D01*
X141375Y125106*
X141063Y124480*
X140437Y124168*
X138250*
Y127918*
X140437*
X141063Y127606*
X141375Y126980*
X141063Y126356*
X140437Y126043*
X138250*
X140437Y136043D02*
X141063Y135730D01*
X141375Y135106*
X141063Y134480*
X140437Y134168*
X138250*
Y137918*
X140437*
X141063Y137606*
X141375Y136980*
X141063Y136356*
X140437Y136043*
X138250*
X140437Y146043D02*
X141063Y145730D01*
X141375Y145106*
X141063Y144480*
X140437Y144168*
X138250*
Y147918*
X140437*
X141063Y147606*
X141375Y146980*
X141063Y146356*
X140437Y146043*
X138250*
X140437Y156043D02*
X141063Y155730D01*
X141375Y155106*
X141063Y154480*
X140437Y154168*
X138250*
Y157918*
X140437*
X141063Y157606*
X141375Y156980*
X141063Y156356*
X140437Y156043*
X138250*
X140437Y166043D02*
X141063Y165730D01*
X141375Y165106*
X141063Y164480*
X140437Y164168*
X138250*
Y167918*
X140437*
X141063Y167606*
X141375Y166980*
X141063Y166356*
X140437Y166043*
X138250*
X140437Y176043D02*
X141063Y175730D01*
X141375Y175106*
X141063Y174480*
X140437Y174168*
X138250*
Y177918*
X140437*
X141063Y177606*
X141375Y176980*
X141063Y176356*
X140437Y176043*
X138250*
X145662Y271602D02*
X146287Y271289D01*
X146600Y270665*
X146287Y270039*
X145662Y269727*
X143474*
Y273477*
X145662*
X146287Y273165*
X146600Y272539*
X146287Y271915*
X145662Y271602*
X143474*
X165000Y45173D02*
X165626Y44860D01*
X165938Y44235*
X165626Y43610*
X165000Y43298*
X162813*
Y47048*
X165000*
X165626Y46735*
X165938Y46110*
X165626Y45485*
X165000Y45173*
X162813*
X165000Y67181D02*
X165626Y66868D01*
X165938Y66243*
X165626Y65618*
X165000Y65306*
X162813*
Y69056*
X165000*
X165626Y68743*
X165938Y68118*
X165626Y67493*
X165000Y67181*
X162813*
X166867Y176043D02*
X167492Y175730D01*
X167804Y175106*
X167492Y174480*
X166867Y174168*
X164679*
Y177918*
X166867*
X167492Y177606*
X167804Y176980*
X167492Y176356*
X166867Y176043*
X164679*
X168819Y156043D02*
X169444Y155730D01*
X169757Y155106*
X169444Y154480*
X168819Y154168*
X166632*
Y157918*
X168819*
X169444Y157606*
X169757Y156980*
X169444Y156356*
X168819Y156043*
X166632*
X170638Y235118D02*
X171263Y234805D01*
X171576Y234180*
X171263Y233555*
X170638Y233243*
X168451*
Y236993*
X170638*
X171263Y236680*
X171576Y236055*
X171263Y235430*
X170638Y235118*
X168451*
X175032Y56177D02*
X175657Y55864D01*
X175970Y55239*
X175657Y54614*
X175032Y54302*
X172844*
Y58052*
X175032*
X175657Y57739*
X175970Y57114*
X175657Y56489*
X175032Y56177*
X172844*
X218369Y296716D02*
X218994Y296404D01*
X219307Y295779*
X218994Y295154*
X218369Y294841*
X216181*
Y298591*
X218369*
X218994Y298279*
X219307Y297654*
X218994Y297029*
X218369Y296716*
X216181*
X237837Y106043D02*
X238463Y105730D01*
X238775Y105106*
X238463Y104480*
X237837Y104168*
X235650*
Y107918*
X237837*
X238463Y107606*
X238775Y106980*
X238463Y106356*
X237837Y106043*
X235650*
X237837Y206043D02*
X238463Y205730D01*
X238775Y205106*
X238463Y204480*
X237837Y204168*
X235650*
Y207918*
X237837*
X238463Y207606*
X238775Y206980*
X238463Y206356*
X237837Y206043*
X235650*
X253250Y54168D02*
X254813Y57918D01*
X256375Y54168*
X253875Y55730D02*
X255750D01*
X253250Y64168D02*
X254813Y67918D01*
X256375Y64168*
X253875Y65730D02*
X255750D01*
X253250Y74168D02*
X254813Y77918D01*
X256375Y74168*
X253875Y75730D02*
X255750D01*
X253250Y84168D02*
X254813Y87918D01*
X256375Y84168*
X253875Y85730D02*
X255750D01*
X253250Y154168D02*
X254813Y157918D01*
X256375Y154168*
X253875Y155730D02*
X255750D01*
X253250Y164168D02*
X254813Y167918D01*
X256375Y164168*
X253875Y165730D02*
X255750D01*
X253250Y174168D02*
X254813Y177918D01*
X256375Y174168*
X253875Y175730D02*
X255750D01*
X253250Y184168D02*
X254813Y187918D01*
X256375Y184168*
X253875Y185730D02*
X255750D01*
X253250Y249168D02*
X254813Y252918D01*
X256375Y249168*
X253875Y250730D02*
X255750D01*
X253250Y259168D02*
X254813Y262918D01*
X256375Y259168*
X253875Y260730D02*
X255750D01*
X253250Y269168D02*
X254813Y272918D01*
X256375Y269168*
X253875Y270730D02*
X255750D01*
X253250Y279168D02*
X254813Y282918D01*
X256375Y279168*
X253875Y280730D02*
X255750D01*
X265969Y296716D02*
X266594Y296404D01*
X266907Y295779*
X266594Y295154*
X265969Y294841*
X263781*
Y298591*
X265969*
X266594Y298279*
X266907Y297654*
X266594Y297029*
X265969Y296716*
X263781*
X283250Y54168D02*
X284813Y57918D01*
X286375Y54168*
X283875Y55730D02*
X285750D01*
X283250Y64168D02*
X284813Y67918D01*
X286375Y64168*
X283875Y65730D02*
X285750D01*
X283250Y74168D02*
X284813Y77918D01*
X286375Y74168*
X283875Y75730D02*
X285750D01*
X283250Y84168D02*
X284813Y87918D01*
X286375Y84168*
X283875Y85730D02*
X285750D01*
X285437Y106043D02*
X286063Y105730D01*
X286375Y105106*
X286063Y104480*
X285437Y104168*
X283250*
Y107918*
X285437*
X286063Y107606*
X286375Y106980*
X286063Y106356*
X285437Y106043*
X283250*
Y154168D02*
X284813Y157918D01*
X286375Y154168*
X283875Y155730D02*
X285750D01*
X283250Y164168D02*
X284813Y167918D01*
X286375Y164168*
X283875Y165730D02*
X285750D01*
X283250Y174168D02*
X284813Y177918D01*
X286375Y174168*
X283875Y175730D02*
X285750D01*
X283250Y184168D02*
X284813Y187918D01*
X286375Y184168*
X283875Y185730D02*
X285750D01*
X285437Y206043D02*
X286063Y205730D01*
X286375Y205106*
X286063Y204480*
X285437Y204168*
X283250*
Y207918*
X285437*
X286063Y207606*
X286375Y206980*
X286063Y206356*
X285437Y206043*
X283250*
Y249168D02*
X284813Y252918D01*
X286375Y249168*
X283875Y250730D02*
X285750D01*
X283250Y259168D02*
X284813Y262918D01*
X286375Y259168*
X283875Y260730D02*
X285750D01*
X283250Y269168D02*
X284813Y272918D01*
X286375Y269168*
X283875Y270730D02*
X285750D01*
X283250Y279168D02*
X284813Y282918D01*
X286375Y279168*
X283875Y280730D02*
X285750D01*
X349477Y207799D02*
X350102Y207486D01*
X350415Y206861*
X350102Y206236*
X349477Y205924*
X347289*
Y209674*
X349477*
X350102Y209361*
X350415Y208736*
X350102Y208111*
X349477Y207799*
X347289*
X350437Y136838D02*
X351063Y136526D01*
X351375Y135901*
X351063Y135276*
X350437Y134963*
X348250*
Y138713*
X350437*
X351063Y138401*
X351375Y137776*
X351063Y137151*
X350437Y136838*
X348250*
X350437Y151043D02*
X351063Y150730D01*
X351375Y150106*
X351063Y149480*
X350437Y149168*
X348250*
Y152918*
X350437*
X351063Y152606*
X351375Y151980*
X351063Y151356*
X350437Y151043*
X348250*
Y314168D02*
Y317918D01*
X350125*
X350750Y317606*
X351063Y317293*
X351375Y316668*
Y315418*
X351063Y314793*
X350750Y314480*
X350125Y314168*
X348250*
X355437Y231043D02*
X356063Y230730D01*
X356375Y230106*
X356063Y229480*
X355437Y229168*
X353250*
Y232918*
X355437*
X356063Y232606*
X356375Y231980*
X356063Y231356*
X355437Y231043*
X353250*
X385437Y91043D02*
X386063Y90730D01*
X386375Y90106*
X386063Y89480*
X385437Y89168*
X383250*
Y92918*
X385437*
X386063Y92606*
X386375Y91980*
X386063Y91356*
X385437Y91043*
X383250*
X385437Y186043D02*
X386063Y185730D01*
X386375Y185106*
X386063Y184480*
X385437Y184168*
X383250*
Y187918*
X385437*
X386063Y187606*
X386375Y186980*
X386063Y186356*
X385437Y186043*
X383250*
X385437Y281043D02*
X386063Y280730D01*
X386375Y280106*
X386063Y279480*
X385437Y279168*
X383250*
Y282918*
X385437*
X386063Y282606*
X386375Y281980*
X386063Y281356*
X385437Y281043*
X383250*
X389394Y41043D02*
X390019Y40730D01*
X390332Y40106*
X390019Y39480*
X389394Y39168*
X387207*
Y42918*
X389394*
X390019Y42606*
X390332Y41980*
X390019Y41356*
X389394Y41043*
X387207*
X389394Y136043D02*
X390019Y135730D01*
X390332Y135106*
X390019Y134480*
X389394Y134168*
X387207*
Y137918*
X389394*
X390019Y137606*
X390332Y136980*
X390019Y136356*
X389394Y136043*
X387207*
X389394Y231043D02*
X390019Y230730D01*
X390332Y230106*
X390019Y229480*
X389394Y229168*
X387207*
Y232918*
X389394*
X390019Y232606*
X390332Y231980*
X390019Y231356*
X389394Y231043*
X387207*
X399394Y55000D02*
X400019Y54687D01*
X400332Y54062*
X400019Y53437*
X399394Y53124*
X397207*
Y56874*
X399394*
X400019Y56562*
X400332Y55937*
X400019Y55312*
X399394Y55000*
X397207*
X399394Y81043D02*
X400019Y80730D01*
X400332Y80106*
X400019Y79480*
X399394Y79168*
X397207*
Y82918*
X399394*
X400019Y82606*
X400332Y81980*
X400019Y81356*
X399394Y81043*
X397207*
X399394Y101043D02*
X400019Y100730D01*
X400332Y100106*
X400019Y99480*
X399394Y99168*
X397207*
Y102918*
X399394*
X400019Y102606*
X400332Y101980*
X400019Y101356*
X399394Y101043*
X397207*
X399394Y150000D02*
X400019Y149687D01*
X400332Y149062*
X400019Y148437*
X399394Y148124*
X397207*
Y151874*
X399394*
X400019Y151562*
X400332Y150937*
X400019Y150312*
X399394Y150000*
X397207*
X399394Y176043D02*
X400019Y175730D01*
X400332Y175106*
X400019Y174480*
X399394Y174168*
X397207*
Y177918*
X399394*
X400019Y177606*
X400332Y176980*
X400019Y176356*
X399394Y176043*
X397207*
X399394Y196043D02*
X400019Y195730D01*
X400332Y195106*
X400019Y194480*
X399394Y194168*
X397207*
Y197918*
X399394*
X400019Y197606*
X400332Y196980*
X400019Y196356*
X399394Y196043*
X397207*
X399394Y245000D02*
X400019Y244687D01*
X400332Y244062*
X400019Y243437*
X399394Y243124*
X397207*
Y246874*
X399394*
X400019Y246562*
X400332Y245937*
X400019Y245312*
X399394Y245000*
X397207*
X399394Y271043D02*
X400019Y270730D01*
X400332Y270106*
X400019Y269480*
X399394Y269168*
X397207*
Y272918*
X399394*
X400019Y272606*
X400332Y271980*
X400019Y271356*
X399394Y271043*
X397207*
X399394Y291043D02*
X400019Y290730D01*
X400332Y290106*
X400019Y289480*
X399394Y289168*
X397207*
Y292918*
X399394*
X400019Y292606*
X400332Y291980*
X400019Y291356*
X399394Y291043*
X397207*
X409394Y41043D02*
X410019Y40730D01*
X410332Y40106*
X410019Y39480*
X409394Y39168*
X407207*
Y42918*
X409394*
X410019Y42606*
X410332Y41980*
X410019Y41356*
X409394Y41043*
X407207*
X409394Y136043D02*
X410019Y135730D01*
X410332Y135106*
X410019Y134480*
X409394Y134168*
X407207*
Y137918*
X409394*
X410019Y137606*
X410332Y136980*
X410019Y136356*
X409394Y136043*
X407207*
X409394Y231043D02*
X410019Y230730D01*
X410332Y230106*
X410019Y229480*
X409394Y229168*
X407207*
Y232918*
X409394*
X410019Y232606*
X410332Y231980*
X410019Y231356*
X409394Y231043*
X407207*
X430437Y321043D02*
X431063Y320730D01*
X431375Y320106*
X431063Y319480*
X430437Y319168*
X428250*
Y322918*
X430437*
X431063Y322606*
X431375Y321980*
X431063Y321356*
X430437Y321043*
X428250*
X460332Y69793D02*
X460019Y69480D01*
X459394Y69168*
X458457*
X457832Y69480*
X457519Y69793*
X457207Y70418*
Y71668*
X457519Y72293*
X457832Y72606*
X458457Y72918*
X459394*
X460019Y72606*
X460332Y72293*
Y164793D02*
X460019Y164480D01*
X459394Y164168*
X458457*
X457832Y164480*
X457519Y164793*
X457207Y165418*
Y166668*
X457519Y167293*
X457832Y167606*
X458457Y167918*
X459394*
X460019Y167606*
X460332Y167293*
Y259793D02*
X460019Y259480D01*
X459394Y259168*
X458457*
X457832Y259480*
X457519Y259793*
X457207Y260418*
Y261668*
X457519Y262293*
X457832Y262606*
X458457Y262918*
X459394*
X460019Y262606*
X460332Y262293*
D02*
D85*
X43250Y268230D03*
X47026Y145766D03*
Y155766D03*
X53250Y195061D03*
Y205061D03*
Y268230D03*
Y308230D03*
X68250Y28230D03*
Y38230D03*
Y48230D03*
Y58230D03*
Y68230D03*
Y78230D03*
Y88230D03*
Y98230D03*
Y108230D03*
Y118230D03*
Y128230D03*
Y138230D03*
Y148230D03*
Y158230D03*
Y168230D03*
X93250Y241156D03*
X103474Y263789D03*
X104541Y231490D03*
X113250Y308230D03*
X114447Y150919D03*
X128250Y28230D03*
Y38230D03*
Y48230D03*
Y58230D03*
Y68230D03*
Y78230D03*
Y88230D03*
Y98230D03*
Y108230D03*
Y118230D03*
Y128230D03*
Y138230D03*
Y148230D03*
Y158230D03*
Y168230D03*
X133474Y263789D03*
X152813Y37360D03*
Y59368D03*
X154679Y168230D03*
X156632Y148230D03*
X158451Y227305D03*
X162844Y48364D03*
X206181Y288904D03*
X225650Y98230D03*
Y198230D03*
X243250Y48230D03*
Y58230D03*
Y68230D03*
Y78230D03*
Y148230D03*
Y158230D03*
Y168230D03*
Y178230D03*
Y243230D03*
Y253230D03*
Y263230D03*
Y273230D03*
X253781Y288904D03*
X273250Y48230D03*
Y58230D03*
Y68230D03*
Y78230D03*
Y98230D03*
Y148230D03*
Y158230D03*
Y168230D03*
Y178230D03*
Y198230D03*
Y243230D03*
Y253230D03*
Y263230D03*
Y273230D03*
X337289Y199986D03*
X338250Y129026D03*
Y143230D03*
Y308230D03*
X343250Y223230D03*
X373250Y83230D03*
Y178230D03*
Y273230D03*
X377207Y33230D03*
Y128230D03*
Y223230D03*
X387207Y47187D03*
Y73230D03*
Y93230D03*
Y142187D03*
Y168230D03*
Y188230D03*
Y237187D03*
Y263230D03*
Y283230D03*
X397207Y33230D03*
Y128230D03*
Y223230D03*
X418250Y313230D03*
X447207Y63230D03*
Y158230D03*
Y253230D03*
X0Y0D02*
M02*
