G04 EasyPC Gerber Version 20.0.2 Build 4112 *
G04 #@! TF.Part,Single*
G04 #@! TF.FileFunction,Soldermask,Top *
%FSLAX35Y35*%
%MOIN*%
G04 #@! TA.AperFunction,SMDPad*
%ADD27R,0.06100X0.07000*%
G04 #@! TA.AperFunction,ComponentPad*
%ADD22R,0.07000X0.07000*%
%ADD24R,0.07400X0.07400*%
%ADD29R,0.08087X0.08087*%
%ADD72R,0.20685X0.20685*%
%ADD25C,0.07400*%
%ADD23C,0.08087*%
%ADD28C,0.08874*%
G04 #@! TA.AperFunction,SMDPad*
%ADD26R,0.07000X0.06100*%
X0Y0D02*
D02*
D22*
X243250Y78230D03*
Y178230D03*
Y273230D03*
D02*
D23*
Y48230D03*
Y58230D03*
Y68230D03*
Y148230D03*
Y158230D03*
Y168230D03*
Y243230D03*
Y253230D03*
Y263230D03*
X273250Y48230D03*
Y58230D03*
Y68230D03*
Y78230D03*
Y148230D03*
Y158230D03*
Y168230D03*
Y178230D03*
Y243230D03*
Y253230D03*
Y263230D03*
Y273230D03*
D02*
D24*
X206181Y288904D03*
X225650Y98230D03*
Y198230D03*
D02*
D25*
X253781Y288904D03*
X273250Y98230D03*
Y198230D03*
D02*
D26*
X213250Y134480D03*
Y141980D03*
X218250Y29480D03*
Y36980D03*
X233250Y224480D03*
Y231980D03*
X298250Y59480D03*
Y66980D03*
Y159480D03*
Y166980D03*
D02*
D27*
X234500Y133230D03*
X239500Y28230D03*
X242000Y133230D03*
X247000Y28230D03*
X264500Y223230D03*
X272000D03*
X289500Y263230D03*
X297000D03*
X304500Y33230D03*
X312000D03*
D02*
D28*
X43250Y268230D03*
X53250D03*
X103474Y263789D03*
X133474D03*
X373250Y83230D03*
Y178230D03*
Y273230D03*
X377207Y33230D03*
Y128230D03*
Y223230D03*
X387207Y47187D03*
Y73230D03*
Y93230D03*
Y142187D03*
Y168230D03*
Y188230D03*
Y237187D03*
Y263230D03*
Y283230D03*
X397207Y33230D03*
Y128230D03*
Y223230D03*
D02*
D29*
X47026Y145766D03*
Y155766D03*
X53250Y195061D03*
Y205061D03*
Y308230D03*
X68250Y28230D03*
Y38230D03*
Y48230D03*
Y58230D03*
Y68230D03*
Y78230D03*
Y88230D03*
Y98230D03*
Y108230D03*
Y118230D03*
Y128230D03*
Y138230D03*
Y148230D03*
Y158230D03*
Y168230D03*
X113250Y308230D03*
X128250Y28230D03*
Y38230D03*
Y48230D03*
Y58230D03*
Y68230D03*
Y78230D03*
Y88230D03*
Y98230D03*
Y108230D03*
Y118230D03*
Y128230D03*
Y138230D03*
Y148230D03*
Y158230D03*
Y168230D03*
X152813Y37360D03*
Y59368D03*
X162844Y48364D03*
D02*
D72*
X447207Y63230D03*
Y158230D03*
Y253230D03*
X0Y0D02*
M02*
