G04 EasyPC Gerber Version 20.0.2 Build 4112 *
G04 #@! TF.Part,Single*
G04 #@! TF.FileFunction,Copper,L1,Top *
%FSLAX35Y35*%
%MOIN*%
G04 #@! TA.AperFunction,SMDPad*
%ADD17R,0.05100X0.06000*%
G04 #@! TA.AperFunction,ComponentPad*
%ADD12R,0.06000X0.06000*%
%ADD14R,0.06400X0.06400*%
%ADD19R,0.07087X0.07087*%
%ADD70R,0.19685X0.19685*%
G04 #@! TD.AperFunction*
%ADD11C,0.01181*%
%ADD10C,0.01575*%
%ADD21C,0.02362*%
%ADD20C,0.03937*%
G04 #@! TA.AperFunction,ComponentPad*
%ADD15C,0.06400*%
%ADD13C,0.07087*%
G04 #@! TA.AperFunction,SMDPad*
%ADD16R,0.06000X0.05100*%
G04 #@! TA.AperFunction,ComponentPad*
%ADD18C,0.07874*%
G04 #@! TA.AperFunction,ViaPad*
%ADD71C,0.15748*%
X0Y0D02*
D02*
D10*
X373250Y275963D02*
Y273230D01*
X387207Y69148D02*
Y73230D01*
Y164533D02*
Y168230D01*
X389640Y260242D02*
Y260730D01*
X387207*
Y263230*
X451124Y37167D02*
X450337Y36380D01*
X448762Y35593*
X446400*
X444825Y36380*
X444037Y37167*
X443250Y38742*
Y41892*
X444037Y43467*
X444825Y44254*
X446400Y45041*
X448762*
X450337Y44254*
X451124Y43467*
X448762Y135317D02*
X450337Y134530D01*
X451124Y132955*
X450337Y131380*
X448762Y130593*
X443250*
Y140041*
X448762*
X450337Y139254*
X451124Y137679*
X450337Y136104*
X448762Y135317*
X443250*
X444695Y222226D02*
X448632Y231675D01*
X452569Y222226*
X446270Y226163D02*
X450994D01*
D02*
D11*
X38183Y308522D02*
X42120D01*
X37455Y144911D02*
X38439Y145404D01*
X38931Y146388*
Y147372*
X38439Y148356*
X37455Y148848*
X36470*
X35486Y148356*
X34994Y147372*
Y146388*
X35486Y145404*
X36470Y144911*
X37455*
X38931Y152785D02*
X34994D01*
X36470D02*
X35486Y153278D01*
X34994Y154262*
Y155246*
X35486Y156230*
X36470Y156722*
X38931*
X43293Y181250D02*
X44278Y180758D01*
X45754*
X46738Y181250*
X47230Y182234*
Y182726*
X46738Y183711*
X45754Y184203*
X43293*
Y186663*
X47230*
X51167D02*
X53628Y180758D01*
X56089Y186663*
X65112Y205982D02*
X69049D01*
X67081Y204014D02*
Y207951D01*
X65321Y193262D02*
X69258D01*
X91108Y308522D02*
X95045D01*
X93077Y306553D02*
Y310490D01*
D02*
D12*
X243250Y78230D03*
Y178230D03*
Y273230D03*
D02*
D13*
Y48230D03*
Y58230D03*
Y68230D03*
Y148230D03*
Y158230D03*
Y168230D03*
Y243230D03*
Y253230D03*
Y263230D03*
X273250Y48230D03*
Y58230D03*
Y68230D03*
Y78230D03*
Y148230D03*
Y158230D03*
Y168230D03*
Y178230D03*
Y243230D03*
Y253230D03*
Y263230D03*
Y273230D03*
D02*
D14*
X206181Y288904D03*
X225650Y98230D03*
Y198230D03*
D02*
D15*
X253781Y288904D03*
X273250Y98230D03*
Y198230D03*
D02*
D16*
X213250Y134480D03*
Y141980D03*
X218250Y29480D03*
Y36980D03*
X233250Y224480D03*
Y231980D03*
X298250Y59480D03*
Y66980D03*
Y159480D03*
Y166980D03*
D02*
D17*
X234500Y133230D03*
X239500Y28230D03*
X242000Y133230D03*
X247000Y28230D03*
X264500Y223230D03*
X272000D03*
X289500Y263230D03*
X297000D03*
X304500Y33230D03*
X312000D03*
D02*
D18*
X43250Y268230D03*
X53250D03*
X93250Y241156D03*
X103474Y263789D03*
X104541Y231490D03*
X114447Y150919D03*
X133474Y263789D03*
X154679Y168230D03*
X156632Y148230D03*
X158451Y227305D03*
X337289Y199986D03*
X338250Y129026D03*
Y143230D03*
X343250Y223230D03*
X373250Y83230D03*
Y178230D03*
Y273230D03*
X377207Y33230D03*
Y128230D03*
Y223230D03*
X387207Y47187D03*
Y73230D03*
Y93230D03*
Y142187D03*
Y168230D03*
Y188230D03*
Y237187D03*
Y263230D03*
Y283230D03*
X397207Y33230D03*
Y128230D03*
Y223230D03*
X418250Y313230D03*
D02*
D19*
X47026Y145766D03*
Y155766D03*
X53250Y195061D03*
Y205061D03*
Y308230D03*
X68250Y28230D03*
Y38230D03*
Y48230D03*
Y58230D03*
Y68230D03*
Y78230D03*
Y88230D03*
Y98230D03*
Y108230D03*
Y118230D03*
Y128230D03*
Y138230D03*
Y148230D03*
Y158230D03*
Y168230D03*
X113250Y308230D03*
X128250Y28230D03*
Y38230D03*
Y48230D03*
Y58230D03*
Y68230D03*
Y78230D03*
Y88230D03*
Y98230D03*
Y108230D03*
Y118230D03*
Y128230D03*
Y138230D03*
Y148230D03*
Y158230D03*
Y168230D03*
X152813Y37360D03*
Y59368D03*
X162844Y48364D03*
D02*
D70*
X447207Y63230D03*
Y158230D03*
Y253230D03*
D02*
D71*
X103474Y267785D02*
Y277848D01*
X112797Y287171*
Y307778*
X113250Y308230*
X206181*
X338250*
D03*
X350228Y166252D02*
X321272D01*
X318250Y163230*
Y93230*
X328250Y83230*
X373250*
X350228Y166252D02*
X335228D01*
X318250Y183230*
Y235963*
X358250Y275963*
X373250*
Y178230D02*
X362207D01*
X350228Y166252*
X387207Y47187D02*
Y53829D01*
X431163*
X440565Y63230*
X447207*
X387207Y142187D02*
Y149907D01*
X431163*
X439486Y158230*
X447207*
X387207Y237187D02*
Y246380D01*
X441644*
X447207Y251943*
Y253230*
X387207Y237187D02*
Y247711D01*
X389640*
Y260242*
X447207Y63230D02*
X443124D01*
X437207Y69148*
X387207*
X447207Y158230D02*
X443510D01*
X437207Y164533*
X387207*
X447207Y253230D02*
X446652D01*
X439640Y260242*
X389640*
D02*
D20*
X103474Y263789D02*
Y267785D01*
X152813Y59368D02*
X185577D01*
X197955Y46990*
X227510*
X227885Y46615*
X206181Y288904D02*
Y308230D01*
X225650Y98230D02*
Y95830D01*
X243250Y78230*
X225650Y198230D02*
Y195830D01*
X243250Y178230*
X227885Y46615D02*
X218250Y36980D01*
X233250Y231980D02*
Y238230D01*
X238250Y243230*
X243250*
Y48230D02*
X229500D01*
X227885Y46615*
X243250Y148230D02*
X219500D01*
X213250Y141980*
X243250Y273230D02*
X221855D01*
X206181Y288904*
X247000Y28230D02*
X253250D01*
X258250Y33230*
Y48230*
X268250Y58230*
X273250*
Y98230D02*
Y78230D01*
Y158230D02*
X268250D01*
X263250Y153230*
Y138230*
X258250Y133230*
X242000*
X273250Y198230D02*
Y178230D01*
Y253230D02*
X278250D01*
X293250Y238230*
Y228230*
X288250Y223230*
X272000*
X298250Y59480D02*
Y58230D01*
X273250*
X298250Y66980D02*
Y73230D01*
X293250Y78230*
X273250*
X298250Y159480D02*
Y158230D01*
X273250*
X298250Y166980D02*
Y173230D01*
X293250Y178230*
X273250*
X387207Y47187D02*
X310543D01*
X298250Y59480*
X387207Y168230D02*
X383250D01*
X358250Y143230*
X338250*
X387207Y237187D02*
X357207D01*
X343250Y223230*
D02*
D21*
X68250Y128230D02*
X78250D01*
X88250Y138230*
Y173230*
X98250Y183230*
X138250*
X143250Y178230*
Y143230*
X152000Y134480*
X213250*
X68250Y138230D02*
X73250D01*
X78250Y143230*
Y198407*
X94455Y214612*
X227797*
X233250Y220065*
Y224480*
X114447Y150919D02*
Y133620D01*
X88494Y107667*
X68813*
X68250Y108230*
X158451Y227305D02*
X127600D01*
X122978Y222683*
X80502*
X74648Y216829*
X56175*
X53770Y214423*
Y205581*
X53250Y205061*
X218250Y29480D02*
X209500D01*
X198250Y18230*
X63250*
X48250Y33230*
Y112687*
X54604Y119041*
X68250*
Y118230*
X234500Y133230D02*
X214500D01*
X213250Y134480*
X239500Y28230D02*
X219500D01*
X218250Y29480*
X243250Y58230D02*
X223250D01*
X173250Y108230*
X128250*
X243250Y68230D02*
X228250D01*
X168250Y128230*
X148250*
X138250Y138230*
X128250*
X243250Y158230D02*
X203250D01*
X193250Y148230*
X156632*
X243250Y168230D02*
X154679D01*
X243250Y253230D02*
X215195D01*
X210360Y248396*
Y248301*
X206033Y243974*
X120577*
X108093Y231490*
X104541*
X243250Y263230D02*
X200474D01*
X188341Y251096*
X97057*
X93156Y247195*
Y241156*
X93250*
X264500Y223230D02*
X234500D01*
X233250Y224480*
X273250Y48230D02*
X288250Y33230D01*
X304500*
X273250Y243230D02*
X260722Y255758D01*
Y275396*
X275722Y290396*
X340415*
X363250Y313230*
X418250*
X273250Y263230D02*
X289500D01*
X297000D02*
X323250D01*
X362587Y302568*
X378913*
X388250Y293230*
Y284274*
X387207Y283230*
X312000Y33230D02*
X323250D01*
X338250Y18230*
X383250*
X397207Y32187*
X398250*
X397207Y33230*
X337289Y199986D02*
X375451D01*
X387207Y188230*
X338250Y129026D02*
X357455D01*
X373250Y113230*
X393250*
X398250Y118230*
Y127187*
X397207Y128230*
X0Y0D02*
M02*
